<!-- by TradingView --><svg width="56" height="56" viewBox="0 0 56 56" xmlns="http://www.w3.org/2000/svg"><path fill="#0073D1" d="M0 0h56v56H0z"/><path d="M30.7 30.22c-.26 0-.52-.04-.77-.13L29 31v-2.5c0-.94.4-2 1.7-2 1.31 0 1.8.98 1.8 1.91 0 .94-.48 1.81-1.8 1.81Zm-7.7.28c-1.31 0-2-1.06-2-2s.69-2 2-2 2 1.06 2 2-.69 2-2 2Zm-8.02 0c-1.3 0-1.98-1.15-1.98-2.09 0-.93.69-1.91 2-1.91s2 .98 2 1.91c0 .94-.7 2.09-2.02 2.09ZM30.7 25c-1.92 0-3.08.86-3.7 2-.62-1.14-2.07-2-4-2-1.96 0-3.4.83-4 2-.6-1.17-2.06-2-4.02-2-2.7 0-3.98 1.45-3.98 3.41 0 .23.02.46.07.69a3.3 3.3 0 0 1-2.78 1.4c-1.3 0-1.79-1.15-1.79-2.09 0-.93.48-1.91 1.8-1.91.75 0 1.23.4 1.5.82l1.06-1.73c-.79-.4-1.67-.61-2.56-.59C5.6 25 4 26.45 4 28.41 4 30.38 5.6 32 8.3 32a5.1 5.1 0 0 0 3.42-1.23A4.9 4.9 0 0 0 15 32c1.96 0 3.4-.83 4-2 .6 1.17 2.04 2 4 2 1.9 0 3.36-.9 4-2v3h2v-1.44c.5.44 1 .44 1.5.44 2.7 0 4.5-1.62 4.5-3.59 0-1.96-1.6-3.4-4.3-3.4ZM45.72 31l-.1-.47a.92.92 0 0 1-.83.47c-.48.03-.81-.4-.79-.85 0-.59.4-.9 1.2-.92l.43-.02c0-.35-.05-.9-.53-.84-.25 0-.49.08-.7.22l-.12-.34c.26-.16.55-.24.84-.25.56-.05.91.45.88.97V31h-.28Zm-.85-.36c.64.04.75-.63.75-1.12l-.38.02c-.38-.01-.86.16-.84.61-.02.27.19.5.47.49ZM38.5 26H38v6h.5v-6ZM43.4 28.17c0 .93-1.03 1.26-1.9 1.26H41V31h-.6v-4h1.23c1.18 0 1.77.39 1.77 1.16ZM41 27.4v1.63h.45c.61 0 1.38-.03 1.38-.84 0-.52-.71-.82-1.26-.79H41ZM51.93 28.18h-.45l-1.08 1.38V27H50v4h.4v-1l.26-.33.88 1.33H52l-1.08-1.62 1-1.2ZM48.64 29.02V31H49v-2c.04-.52-.27-1.05-.87-1-.3 0-.6.15-.76.46L47.3 28H47v3h.4v-1.55c-.02-.29 0-.58.14-.82a.63.63 0 0 1 .55-.25c.4-.04.57.3.55.64Z" fill="#F0F3FA"/></svg>