<!-- by TradingView --><svg xmlns="http://www.w3.org/2000/svg" width="56" height="56" viewBox="0 0 56 56"><path fill="#F0F3FA" d="M0 0h56v56H0z"/><path fill-rule="evenodd" d="M52 28c0 3.87-10.75 7-24 7S4 31.87 4 28s10.75-7 24-7 24 3.13 24 7Zm-1.19 0c0 3.67-10.21 6.65-22.81 6.65-12.6 0-22.81-2.98-22.81-6.65 0-3.67 10.21-6.65 22.81-6.65 12.6 0 22.81 2.98 22.81 6.65ZM39 26.5v2.94c0 .86.54 1.56 1.37 1.56h.6c.31 0 1.01-.06 1.27-.22V29.3c-.13.06-.45.18-.74.18-.35 0-.5-.17-.5-.5V26.5h1.24V25H41v-2l-2 1.2v.8h-1v1.5h1ZM21 25h2v.98c.34-.6.94-.98 1.61-.98.77 0 1.42.5 1.71 1.23.3-.73.98-1.23 1.76-1.23 1.06 0 1.92.94 1.92 2.1V31h-2v-3.66c0-.35-.36-.64-.69-.64-.48 0-.81.43-.81.97V31h-2v-3.61a.67.67 0 0 0-.65-.66c-.48 0-.85.44-.85.98V31h-2v-6Zm-7.5 1.74 2.08.23c.18-.21.67-.63 1.2-.63.66 0 1.14.67.11.97-.2.06-.47.1-.75.16-1.13.2-2.64.48-2.64 1.92s1.46 1.67 2.19 1.6c.46-.01 1.52-.21 2.02-.89l.35.9H20v-.3a1.38 1.38 0 0 1-.38-1V27c0-1.1-.87-2-1.94-2h-2.13c-.73 0-1.4.42-1.73 1.09l-.32.65Zm4.02 1.5v.14c0 .4-.15.77-.43 1.06l-.22.23a.7.7 0 0 1-1-.02.63.63 0 0 1 .32-1.03l1.33-.37Zm19.95.26c.02-.16.03-.32.03-.5 0-1.66-1.46-3-3.25-3-1.8 0-3.25 1.34-3.25 3 0 1.83 1.46 3 3.25 3 1.3 0 2.41-.45 2.93-1.5H34.9a1 1 0 0 1-.64.25c-.58 0-1.06-.54-1.18-1.25h4.4Zm-4.32-1c.2-.55.61-.94 1.1-.94.49 0 .9.39 1.1.94h-2.2Z" fill="#DA251D"/></svg>