<!-- by TradingView --><svg width="56" height="56" fill="none" xmlns="http://www.w3.org/2000/svg"><path fill="#F47735" d="M0 0h56v56H0z"/><path fill-rule="evenodd" clip-rule="evenodd" d="M6.546 24 4 32h3l1-4 .643 4h1.752l2.105-4-.5 4h5.807l.51-1h2.036l.183 1h6.212l1.405-2L29 32h6.342l1.507-2 .773 2H41l-2-4.21L42 24h-3.481l-1.1 1.696-.59-1.696h-3.361l2.016 3.73-3.279 3.771L30 27.791 33.325 24 30 24.02l-1.216 1.736-.59-1.756H25l2 3.75-3.328 3.671L22 24h-3.215l-3.788 7v-7h-2.994S10 27.74 10 28c0 .28-.339-4-.339-4H6.546Zm13.685 5L20 27l-1 2h1.23Z" fill="url(#a)"/><path fill-rule="evenodd" clip-rule="evenodd" d="M42.463 24h3.147L44 32h-3l1.463-8Z" fill="url(#b)"/><path fill-rule="evenodd" clip-rule="evenodd" d="m51 26.827 1-2.125S51.283 24 49.755 24C48.226 24 46 25.035 46 27c0 2.165 2.644 1.953 2.604 2.484a.565.565 0 0 1-.573.516c-.103 0-.207-.016-.295-.044-.32-.1-.787-.334-1.599-.956L45 31s.66 1 2.736 1c2.075 0 3.839-1.356 3.839-3s-1.896-1.932-2.556-2.233c-.264-.12-.34-.26-.32-.361.037-.18.358-.28.754-.22.698.12 1.103.345 1.547.641Z" fill="url(#c)"/><defs><linearGradient id="a" x1="23" y1="24" x2="23" y2="32" gradientUnits="userSpaceOnUse"><stop stop-color="#181B1E"/><stop offset="1" stop-color="#181B1E"/></linearGradient><linearGradient id="b" x1="43.305" y1="24" x2="43.305" y2="32" gradientUnits="userSpaceOnUse"><stop stop-color="#181B1E"/><stop offset="1" stop-color="#181B1E"/></linearGradient><linearGradient id="c" x1="48.5" y1="24" x2="48.5" y2="32" gradientUnits="userSpaceOnUse"><stop stop-color="#181B1E"/><stop offset="1" stop-color="#181B1E"/></linearGradient></defs></svg>