<!-- by TradingView --><svg width="56" height="56" viewBox="0 0 56 56" xmlns="http://www.w3.org/2000/svg"><path fill="#F0F3FA" d="M0 0h56v56H0z"/><path d="M16.68 16.68a15.96 15.96 0 1 1 22.57 22.57 15.96 15.96 0 0 1-22.57-22.57Z" fill="#003669"/><path d="M17.04 17.04A14.76 14.76 0 1 1 37.92 37.9a14.76 14.76 0 0 1-20.88-20.87Z" fill="#003F73"/><path d="M17.53 17.52A13.14 13.14 0 1 1 36.11 36.1a13.14 13.14 0 0 1-18.58-18.58Z" fill="#004C81"/><path d="M18.03 18.01A11.5 11.5 0 1 1 34.3 34.3 11.5 11.5 0 0 1 18.03 18Z" fill="#005A90"/><path d="M18.73 18.7a9.2 9.2 0 1 1 13 13.01 9.2 9.2 0 0 1-13-13Z" fill="#006EA7"/><path d="M19.28 19.25A7.4 7.4 0 1 1 29.74 29.7a7.4 7.4 0 0 1-10.46-10.46Z" fill="#007FB9"/><path d="M19.57 19.53a6.46 6.46 0 1 1 9.13 9.13 6.46 6.46 0 0 1-9.13-9.13Z" fill="#0087C3"/><path d="M20.06 20.02a4.83 4.83 0 1 1 6.83 6.82 4.83 4.83 0 0 1-6.83-6.82Z" fill="#0097D5"/><path d="M20.48 20.43a3.46 3.46 0 1 1 4.89 4.89 3.46 3.46 0 0 1-4.9-4.89Z" fill="#00A5E5"/><path d="M15.57 17.85c1.96-1.23 8.86 1.69 14.87 7.7 6.01 6 8.93 12.91 7.7 14.88h.01c2.24-2.83.65-11.02-5.46-17.13-6.1-6.1-14.56-7.53-17.14-5.46l.02.01Z" fill="#FEFEFE"/></svg>